<svg aria-hidden="true" style="position:absolute;width:0;height:0" xmlns="http://www.w3.org/2000/svg" overflow="hidden"><defs><symbol id="icon-facebook" viewBox="0 0 32 32"><path d="M17.863 27.996V17.068h3.687l.548-4.279h-4.235v-2.725c0-1.235.344-2.08 2.116-2.08h2.245V4.169A29.634 29.634 0 0 0 18.935 4c-3.259 0-5.496 1.989-5.496 5.641v3.14H9.776v4.279h3.671v10.936h4.416z"/></symbol><symbol id="icon-instagram" viewBox="0 0 32 32"><path d="M22 0H10C4.478 0 0 4.478 0 10v12c0 5.522 4.478 10 10 10h12c5.522 0 10-4.478 10-10V10c0-5.522-4.478-10-10-10zm7 22c0 3.86-3.14 7-7 7H10c-3.86 0-7-3.14-7-7V10c0-3.86 3.14-7 7-7h12c3.86 0 7 3.14 7 7v12z"/><path d="M16 8a8 8 0 1 0 0 16 8 8 0 0 0 0-16zm0 13c-2.756 0-5-2.244-5-5 0-2.758 2.244-5 5-5s5 2.242 5 5c0 2.756-2.244 5-5 5zM24.597 8.467a1.066 1.066 0 1 0 0-2.131 1.066 1.066 0 0 0 0 2.131z"/></symbol><symbol id="icon-vkontakte" viewBox="0 0 32 32"><path d="M28.483 19.677s2.587 2.555 3.227 3.738a.199.199 0 0 1 .029.056c.261.437.325.779.197 1.032-.216.418-.947.627-1.195.645h-4.573c-.318 0-.981-.083-1.787-.64-.616-.43-1.229-1.139-1.822-1.832-.886-1.029-1.653-1.922-2.429-1.922a.883.883 0 0 0-.288.048c-.587.186-1.333 1.022-1.333 3.251 0 .698-.55 1.094-.936 1.094h-2.094c-.714 0-4.429-.25-7.723-3.723C3.719 17.171.094 8.64.058 8.565c-.226-.552.248-.853.76-.853h4.618c.619 0 .821.374.962.71.163.386.768 1.928 1.76 3.661 1.606 2.819 2.594 3.966 3.382 3.966a.843.843 0 0 0 .422-.112c1.03-.566.838-4.246.79-5.005 0-.147-.002-1.643-.53-2.366-.378-.518-1.021-.72-1.41-.794.104-.15.325-.381.608-.517.706-.352 1.981-.403 3.246-.403h.702c1.373.019 1.728.107 2.227.234 1.005.24 1.024.891.936 3.109a51.239 51.239 0 0 0-.053 2.187c0 .179-.008.379-.008.582-.03 1.138-.07 2.419.733 2.946a.656.656 0 0 0 .347.099c.278 0 1.112 0 3.373-3.88.992-1.714 1.76-3.734 1.813-3.886.045-.085.179-.323.342-.419a.764.764 0 0 1 .378-.09h5.432c.592 0 .994.09 1.072.314.131.363-.026 1.472-2.506 4.826-.418.558-.784 1.042-1.106 1.464-2.248 2.95-2.248 3.099.133 5.339z"/></symbol><symbol id="icon-youtube" viewBox="0 0 32 32"><path d="M29.41 9.26c-.159-.592-.471-1.132-.905-1.565s-.973-.745-1.565-.905C24.76 6.2 16 6.2 16 6.2s-8.76 0-10.94.59c-.592.159-1.132.471-1.565.905s-.745.973-.905 1.565A36.099 36.099 0 0 0 2 16c-.015 2.26.183 4.517.59 6.74.159.592.471 1.132.905 1.565s.973.745 1.565.905c2.18.59 10.94.59 10.94.59s8.76 0 10.94-.59c.592-.159 1.132-.471 1.565-.905s.745-.973.905-1.565c.407-2.223.605-4.48.59-6.74a36.099 36.099 0 0 0-.59-6.74zM13.2 20.2v-8.4l7.27 4.2-7.27 4.2z"/></symbol><symbol id="icon-profession-1" viewBox="0 0 32 32"><path d="M3 6.5H2V4h2.5v1H3v1.5zM21 26h-1v-1h1v1zm-2 0h-1v-1h1v1zm-2 0h-1v-1h1v1zm-2 0h-1v-1h1v1zm-2 0h-1v-1h1v1zm-2 0h-1v-1h1v1zm-2 0H8v-1h1v1zm-2 0H6v-1h1v1zm-2 0H4v-1h1v1zm-2 0H2v-1h1v1zM21 28h-1v-1h1v1zm-2 0h-1v-1h1v1zm-2 0h-1v-1h1v1zm-2 0h-1v-1h1v1zm-2 0h-1v-1h1v1zm-2 0h-1v-1h1v1zm-2 0H8v-1h1v1zm-2 0H6v-1h1v1zm-2 0H4v-1h1v1zm-2 0H2v-1h1v1zM26 4h4v1h-4V4zM26 6h4v1h-4V6zM26 8h4v1h-4V8zM21 11h-2.5v-1H20V8.5h1V11z"/><path d="M30.5 2h-5A1.5 1.5 0 0 0 24 3.5V21h8V3.5A1.5 1.5 0 0 0 30.5 2zm.5 18h-6V3.5a.5.5 0 0 1 .5-.5h5a.5.5 0 0 1 .5.5V20zM21.5 23h-20A1.5 1.5 0 0 0 0 24.5v4A1.5 1.5 0 0 0 1.5 30h20a1.5 1.5 0 0 0 1.5-1.5v-4a1.5 1.5 0 0 0-1.5-1.5zm.5 5.5a.5.5 0 0 1-.5.5h-20a.5.5 0 0 1-.5-.5v-4a.5.5 0 0 1 .5-.5h20a.5.5 0 0 1 .5.5v4zM27.5 23a2.503 2.503 0 0 0-2.5 2.5v2a2.5 2.5 0 1 0 5 0v-2a2.503 2.503 0 0 0-2.5-2.5zm1.5 4.5a1.5 1.5 0 0 1-3 0v-2a1.501 1.501 0 0 1 1-1.408V26h1v-1.908c.597.211.997.775 1 1.408v2zM21.5 2h-20A1.5 1.5 0 0 0 0 3.5v12A1.5 1.5 0 0 0 1.5 17h7v2.084a.917.917 0 0 1-.917.916H6v1h10v-1h-1.584a.917.917 0 0 1-.916-.916V17h8a1.5 1.5 0 0 0 1.5-1.5v-12A1.5 1.5 0 0 0 21.5 2zM9.266 20c.154-.281.234-.596.234-.916V17h1v2.125h1V17h1v2.084c0 .32.08.636.234.916H9.266zM22 15.5a.5.5 0 0 1-.5.5h-20a.5.5 0 0 1-.5-.5V13h21v2.5zm0-3.5H1V3.5a.5.5 0 0 1 .5-.5h20a.5.5 0 0 1 .5.5V12z"/><path d="M28.5 15.071V14h-1v1.071a2 2 0 1 0 1 0zM28 18a.997.997 0 0 1-.5-1.861V17h1v-.861A.996.996 0 0 1 28 18zM10.5 14h1v1h-1v-1z"/></symbol><symbol id="icon-profession-2" viewBox="0 0 32 32"><path d="M14 2h1v4h-1V2zM17 2h1v4h-1V2z"/><path d="M21 7V0H11v7H9v25h14V7h-2zm-9-6h8v6h-8V1zm10 30H10V8h12v23z"/><path d="M12 19.908v2.922l3.5 1.5v1.762a1.5 1.5 0 1 0 1 0v-3.624l3.5-3.25V17h1v-3h-3v3h1v1.782l-2.5 2.322v-9.229l.979.979.707-.707L16 9.961l-2.186 2.186.707.707.979-.979v11.367L13 22.17v-2.262a1.5 1.5 0 1 0-1 0zM19 15h1v1h-1v-1zm-3 12a.5.5 0 1 1 0 1 .5.5 0 0 1 0-1zm-3.5-9a.5.5 0 1 1 0 1 .5.5 0 0 1 0-1z"/></symbol><symbol id="icon-profession-3" viewBox="0 0 32 32"><path d="M3 3h1v1H3V3zM3 5h1v1H3V5zM28 26h1v1h-1v-1zM28 28h1v1h-1v-1z"/><path d="M27 23h-7.5a1.5 1.5 0 0 0-1.5 1.5V26h-3v1H6.25a5.25 5.25 0 0 1 0-10.5h19.5a6.25 6.25 0 1 0 0-12.5H17V3h-3V1.5A1.5 1.5 0 0 0 12.5 0H5v1H0v7h5v1h7.5A1.5 1.5 0 0 0 14 7.5V6h3V5h8.75a5.25 5.25 0 0 1 0 10.5H6.25a6.25 6.25 0 1 0 0 12.5H15v1h3v1.5a1.5 1.5 0 0 0 1.5 1.5H27v-1h5v-7h-5v-1zM5 7H1V2h4v5zm8-4v4.5a.5.5 0 0 1-.5.5H6V1h6.5a.5.5 0 0 1 .5.5V3zm3 2h-2V4h2v1zm2 23h-2v-1h2v1zm8 3h-6.5a.5.5 0 0 1-.5-.5v-6a.5.5 0 0 1 .5-.5H26v7zm5-6v5h-4v-5h4z"/></symbol></defs></svg>